<svg height="511pt" viewBox="-24 0 511 511.99695" width="511pt" xmlns="http://www.w3.org/2000/svg"><path d="m59.933594 8.453125c-3.0625.398437-5.886719 1.851563-8.042969 4.066406-15.855469 16.273438-78.019531 90.917969-18.691406 209.960938l158.933593-132.578125c-22.457031-65.695313-86.464843-87.441406-132.199218-81.449219zm0 0" fill="#5c586f"/><path d="m52.75 135.113281c-13.820312 15.085938-25.546875 31.683594-35.042969 49.378907 3.824219 12.105468 8.90625 24.773437 15.492188 37.988281l158.933593-132.578125c-3.535156-10.34375-8.101562-19.597656-13.46875-27.828125-48.164062 10.804687-92.074218 36.101562-125.914062 73.039062zm0 0" fill="#4f4c5f"/><path d="m87.332031 63.816406c-4.433593-.519531-8.761719 1.542969-11.210937 5.277344-4.394532 6.699219-9.136719 15.429688-12.804688 25.988281-12.171875 35.027344-7.546875 74.457031 13.75 117.191407l74.945313-97.480469c-11.695313-34.207031-40.539063-48.144531-64.679688-50.976563zm0 0" fill="#ffb2c1"/><path d="m404.277344 8.453125c3.0625.398437 5.886718 1.851563 8.042968 4.066406 15.855469 16.273438 78.019532 90.917969 18.691407 209.960938l-158.933594-132.578125c22.453125-65.695313 86.464844-87.441406 132.199219-81.449219zm0 0" fill="#5c586f"/><path d="m446.503906 184.496094c-9.496094-17.699219-21.222656-34.296875-35.042968-49.382813-33.839844-36.9375-77.75-62.234375-125.914063-73.039062-5.363281 8.230469-9.933594 17.484375-13.46875 27.828125l158.933594 132.582031c6.585937-13.21875 11.667969-25.886719 15.492187-37.988281zm0 0" fill="#4f4c5f"/><path d="m376.878906 63.816406c4.433594-.519531 8.761719 1.542969 11.210938 5.277344 4.394531 6.699219 9.136718 15.429688 12.804687 25.988281 12.171875 35.027344 7.546875 74.457031-13.75 117.191407l-74.945312-97.480469c11.695312-34.207031 40.539062-48.144531 64.679687-50.976563zm0 0" fill="#ffb2c1"/><path d="m407.441406 130.832031c-20.496094-21.328125-44.445312-38.53125-70.636718-51.03125-10.382813 8.039063-19.277344 19.40625-24.605469 34.992188l74.945312 97.480469c14.332031-28.757813 21.101563-56.011719 20.296875-81.441407zm0 0" fill="#ff889e"/><path d="m152.011719 114.792969c-5.328125-15.585938-14.226563-26.953125-24.609375-34.992188-26.1875 12.5-50.136719 29.703125-70.632813 51.03125-.804687 25.429688 5.964844 52.683594 20.296875 81.441407zm0 0" fill="#ff889e"/><path d="m212.117188 87.085938c-108.375 10.078124-193.21875 101.277343-193.21875 212.285156 0 62.652344 27.027343 119.003906 70.066406 158.007812h286.28125c43.039062-39.003906 70.0625-95.355468 70.0625-158.007812 0-111.007813-84.84375-202.207032-193.214844-212.285156l-19.988281 13.128906zm0 0" fill="#5c586f"/><path d="m48.898438 299.371094c0-102.539063 72.394531-188.171875 168.855468-208.582032l-5.636718-3.703124c-108.375 10.078124-193.21875 101.277343-193.21875 212.285156 0 62.652344 27.027343 119.003906 70.066406 158.011718h30c-43.039063-39.007812-70.066406-95.359374-70.066406-158.011718zm0 0" fill="#4f4c5f"/><path d="m315.074219 185.910156c-1.867188 20.921875-15.328125 37.675782-27.925781 53.492188-13.433594 16.855468-26.660157 36.195312-20.699219 58.8125l17.242187 54.230468-51.585937 16.21875-57.101563-12.832031 22.757813-57.617187c5.960937-22.613282-7.265625-41.957032-20.699219-58.8125-12.597656-15.8125-26.0625-32.570313-27.925781-53.492188-1.957031-21.9375 8.949219-43.234375 22.636719-59.625 12.019531-14.402344 26.203124-26.941406 40.34375-39.199218h.007812c6.578125-.605469 13.238281-.921876 19.980469-.921876 6.742187 0 13.402343.316407 19.980469.921876h.007812c14.140625 12.257812 28.324219 24.796874 40.34375 39.199218 13.683594 16.390625 24.59375 37.6875 22.636719 59.625zm0 0" fill="#e7e7e7"/><path d="m331.78125 457.378906c0-26.023437-44.625-47.121094-99.675781-47.121094s-99.679688 21.097657-99.679688 47.121094c0 26.023438 44.628907 47.121094 99.679688 47.121094s99.675781-21.097656 99.675781-47.121094zm0 0" fill="#e7e7e7"/><path d="m266.449219 298.214844c18.226562 3.089844 35.839843 8.644531 52.101562 16.472656 27.492188 13.246094 50.621094 32.710938 66.914063 56.285156 23.859375 34.558594 15.195312 81.90625-19.363282 105.769532-13.175781 9.101562-28.230468 13.472656-43.128906 13.472656-17.386718 0-34.558594-5.953125-48.3125-17.253906-6.023437-4.949219-12.761718-8.839844-19.949218-11.496094-7.1875-2.664063-14.820313-4.085938-22.605469-4.085938-15.582031 0-30.511719 5.6875-42.542969 15.582032-13.765625 11.300781-30.9375 17.253906-48.324219 17.253906-14.898437 0-29.941406-4.371094-43.128906-13.472656-34.546875-23.863282-43.222656-71.210938-19.363281-105.757813 16.289062-23.585937 39.421875-43.050781 66.914062-56.296875 16.257813-7.828125 33.875-13.382812 52.101563-16.472656zm0 0" fill="#ffb2c1"/><path d="m160.238281 477.214844c-14.898437 0-29.941406-4.371094-43.128906-13.472656-34.546875-23.863282-43.222656-71.210938-19.363281-105.757813 9.222656-13.351563 20.640625-25.378906 33.796875-35.710937-21.3125 12.664062-39.378907 29.285156-52.796875 48.710937-23.859375 34.546875-15.183594 81.894531 19.363281 105.757813 13.1875 9.101562 28.230469 13.472656 43.128906 13.472656 17.386719 0 34.558594-5.953125 48.324219-17.253906 1.953125-1.605469 3.988281-3.089844 6.085938-4.46875-10.945313 5.734374-23.121094 8.722656-35.410157 8.722656zm0 0" fill="#ff889e"/><path d="m266.449219 298.214844c-1.472657 17.675781-16.28125 31.566406-34.34375 31.566406s-32.875-13.886719-34.34375-31.566406c11.28125-1.925782 22.777343-2.898438 34.34375-2.898438 11.566406 0 23.0625.972656 34.34375 2.898438zm0 0" fill="#423e4f"/><path d="m108.339844 308.078125h-15.996094c-4.144531 0-7.5-3.355469-7.5-7.5 0-4.140625 3.355469-7.5 7.5-7.5h15.996094c4.144531 0 7.5 3.359375 7.5 7.5 0 4.144531-3.355469 7.5-7.5 7.5zm0 0" fill="#ffb2c1"/><path d="m371.867188 308.078125h-16c-4.140626 0-7.5-3.355469-7.5-7.5 0-4.140625 3.359374-7.5 7.5-7.5h16c4.140624 0 7.5 3.359375 7.5 7.5 0 4.144531-3.359376 7.5-7.5 7.5zm0 0" fill="#ffb2c1"/><path d="m114.710938 288.671875c4.140624 0 7.5-3.355469 7.5-7.5v-16.894531c0-4.140625-3.359376-7.5-7.5-7.5-4.144532 0-7.5 3.359375-7.5 7.5v16.894531c0 4.144531 3.359374 7.5 7.5 7.5zm0 0"/><path d="m357.015625 281.171875v-16.894531c0-4.140625-3.359375-7.5-7.5-7.5-4.144531 0-7.5 3.359375-7.5 7.5v16.894531c0 4.144531 3.355469 7.5 7.5 7.5 4.140625 0 7.5-3.355469 7.5-7.5zm0 0"/><path d="m457.984375 80.226562c-1.050781-4.007812-5.148437-6.402343-9.15625-5.351562s-6.402344 5.152344-5.351563 9.160156c9.863282 37.566406 5.742188 77.898438-12.230468 120.09375-.019532-.039062-.039063-.078125-.058594-.117187-5.726562-11.945313-12.542969-23.402344-20.398438-34.214844 6.417969-27.355469 5.496094-53.304687-2.800781-77.175781-3.375-9.707032-7.957031-19.007813-13.621093-27.640625-3.949219-6.015625-11.199219-9.449219-18.355469-8.609375-12.921875 1.515625-43.65625 8.238281-62.289063 37.886718-6.117187-2.433593-12.34375-4.59375-18.671875-6.472656-.210937-.0625-10.667969-2.898437-12.84375-3.40625 12.738281-30.273437 34.277344-46.785156 50.738281-55.445312 21.535157-11.324219 47.183594-16.078125 70.367188-13.042969 1.351562.175781 2.644531.839844 3.644531 1.863281 5.953125 6.109375 17.355469 19.375 26.839844 39.585938 1.757813 3.75 6.226563 5.363281 9.976563 3.605468 3.75-1.757812 5.363281-6.226562 3.601562-9.976562-10.417969-22.199219-23.066406-36.898438-29.675781-43.683594-3.339844-3.429687-7.757813-5.652344-12.441407-6.269531-26.179687-3.429687-55.082031 1.910156-79.292968 14.644531-27.1875 14.296875-47.394532 36.960938-58.757813 65.789063-4.765625-.761719-9.570312-1.378907-14.453125-1.832031-13.644531-1.257813-27.550781-1.261719-41.203125-.007813-.019531.003906-.042969.007813-.0625.011719-.019531 0-.039062-.003906-.058593 0-4.839844.449218-9.640626 1.066406-14.410157 1.828125-23.570312-59.96875-79.96875-81.44531275-122.167969-81.44531275-9.699218 0-21.054687-.17968725-28.324218 7.28124975-8.320313 8.539063-28.8125 32.414063-39.382813 69.628906-12.96875 45.648438-6.933593 94.738282 17.910157 145.960938-8.953126 24.246094-13.648438 50.09375-13.648438 76.496094 0 16.167968 1.769531 32.324218 5.253906 48.019531.898438 4.042969 4.902344 6.59375 8.949219 5.695313 4.042969-.894532 6.589844-4.902344 5.695313-8.945313-3.25-14.632813-4.898438-29.691406-4.898438-44.769531 0-25.742188 4.777344-50.921875 13.890625-74.414063 6.949219-17.894531 16.445313-34.796875 28.074219-50.070312 26.476562-34.761719 64.039062-60.71875 105.988281-72.996094 4.003906-1.171875 13.265625-3.390625 13.835937-3.515625-2.441406 2.277344-4.859374 4.582031-7.222656 6.945312-13.414062 13.414063-25.96875 28.125-33.304687 45.824219-4.613281 11.136719-7.074219 23.367188-5.996094 35.429688 2.054687 23.015625 16.503906 41.152343 29.253906 57.152343 6.527344 8.1875 13.035157 16.695313 17.132813 26.410157 2.878906 6.824219 4.328125 14.21875 3.347656 21.613281-18.582031 3.609375-36.714844 9.78125-53.546875 18.449219-20.8125 10.714843-39.699219 25.265625-54.925781 43.082031-13.664063 15.984375-23.683594 34.191406-25.003906 55.554688-7.511719-11.914063-13.765626-24.566407-18.695313-37.828126-1.445313-3.882812-5.761719-5.859374-9.644531-4.417968-3.882813 1.445312-5.859375 5.761718-4.417969 9.644531 8.578125 23.070313 20.902344 44.414063 36.625 63.46875 5.578125 17.5 16.691406 32.597656 32.058594 43.207031 14.023437 9.683594 30.414062 14.800782 47.390625 14.800782 5.03125 0 10.03125-.464844 14.933594-1.355469 19.839843 9.953125 47.296874 15.640625 75.929687 15.640625 28.636719 0 56.089844-5.6875 75.929687-15.640625 4.90625.890625 9.902344 1.355469 14.9375 1.355469 16.988282 0 33.378907-5.117188 47.394532-14.800782 15.367187-10.613281 26.484375-25.710937 32.0625-43.21875 32.496094-39.402344 50.382812-89.167968 50.382812-140.324218 0-26.398438-4.691406-52.25-13.648437-76.496094 24.222656-49.929688 30.5625-97.910156 18.816406-142.644532zm-80.226563-8.957031c1.597657-.1875 3.167969.566407 4.066407 1.9375 4.988281 7.605469 9.023437 15.792969 11.992187 24.339844 6.140625 17.660156 7.707032 36.722656 4.695313 56.835937-1.191407-1.367187-2.402344-2.726562-3.632813-4.070312-18.980468-20.714844-41.910156-37.777344-67.230468-49.945312 15.355468-22.617188 39.707031-27.878907 50.109374-29.097657zm-344.777343 132.859375c-18.476563-43.355468-22.320313-84.707031-11.410157-123.117187 9.636719-33.917969 28.175782-55.535157 35.699219-63.257813 3.605469-3.699218 12.765625-2.753906 17.582031-2.753906 36.789063 0 85.726563 18.359375 107.167969 69.378906-4.105469.9375-12.628906 3.339844-12.828125 3.402344-6.332031 1.878906-12.566406 4.039062-18.6875 6.472656-18.632812-29.648437-49.367187-36.371094-62.289062-37.882812-7.199219-.84375-14.386719 2.554687-18.355469 8.609375-5.664063 8.632812-10.246094 17.933593-13.621094 27.640625-8.296875 23.871094-9.21875 49.820312-2.800781 77.175781-7.859375 10.8125-14.671875 22.269531-20.398438 34.214844-.019531.039062-.039062.078125-.058593.117187zm37.425781-106.582031c2.96875-8.546875 7.003906-16.734375 11.992188-24.339844.878906-1.335937 2.46875-2.128906 4.066406-1.9375 10.40625 1.21875 34.753906 6.480469 50.113281 29.09375-18.261719 8.777344-35.308594 20.082031-50.652344 33.667969-.058593.050781-.117187.101562-.171875.152344-7.085937 6.304687-13.8125 13.054687-20.042968 20.199218-3.011719-20.113281-1.441407-39.175781 4.695312-56.835937zm86.207031 87.675781c-1.628906-18.429687 7.113281-36.511718 18.179688-50.710937 11.277343-14.46875 25.027343-26.746094 38.804687-38.761719.535156-.46875 1.070313-.933594 1.605469-1.402344 11.234375-.90625 22.585937-.90625 33.816406 0 .523438.453125 1.039063.90625 1.558594 1.355469 20.417969 17.800781 42.683594 36.933594 52.761719 62.855469 3.242187 8.445312 5.078125 17.621094 4.269531 26.683594-1.703125 19.074218-14.574219 34.738281-26.042969 49.136718-9.671875 12.136719-19.292968 25.378906-22.800781 40.855469-1.050781 4.636719-.824219 9.363281-1.296875 14.078125-.382812-.007812-.761719-.054688-1.144531-.101562-8.023438-.917969-16.132813-1.394532-24.210938-1.394532-8.085937 0-16.183593.46875-24.214843 1.394532-.394532.046874-.792969.078124-1.1875.125 1.078124-21.65625-12.355469-40.257813-25.179688-56.371094-11.628906-14.609375-23.316406-29.777344-24.917969-47.742188zm100.105469 121.070313c-4.046875 8.949219-12.882812 15.183593-22.6875 15.910156-11.78125.875-23.117188-6.546875-27.214844-17.585937-.023437-.050782-.042968-.109376-.0625-.164063 8.828125-1.148437 17.730469-1.65625 26.632813-1.613281 8.058593.046875 16.089843.574218 24.082031 1.613281-.015625 0-.671875 1.671875-.75 1.839844zm29.351562 182.851562c-15.65625 5.066407-34.441406 7.855469-53.957031 7.855469s-38.300781-2.789062-53.957031-7.855469c.195312-.09375 11.382812-6.449219 16.175781-10.390625 10.878907-8.945312 24.296875-13.871094 37.78125-13.871094 12.824219 0 25.347657 4.492188 35.578125 12.152344 5.785156 4.328125 11.773438 8.882813 18.378906 12.109375zm75.777344-18.574219c-15.460937 10.675782-35.148437 14.5625-53.5 10.566407-.070312-.015625-.140625-.035157-.210937-.046875-10.480469-2.257813-20.433594-7.125-28.710938-13.921875-13.25-10.886719-30.113281-17.285157-47.3125-17.285157-15.339843 0-30.453125 5.097657-42.933593 13.957032-14.585938 10.359375-29.542969 18.875-47.933594 18.875-29.777344 0-56.878906-20.113282-65.484375-48.597656-.015625-.058594-.027344-.121094-.046875-.179688-10.695313-35.574219 10.996094-67.277344 37.167968-89.277344 20.769532-17.460937 45.816407-29.652344 72.121094-36.125 2.257813-.554687 4.523438-1.078125 6.800782-1.550781 4.839843 16.5625 19.925781 28.746094 37.097656 30.15625 1.917968.160156 3.832031.164063 5.753906.054687 15.015625-.859374 28.746094-10.417968 35.300781-23.867187.957031-1.964844 1.828125-4.175781 2.460938-6.34375 25.875 5.390625 50.695312 16.160156 71.851562 32.074219 29.496094 22.191406 56.074219 55.480468 44.242188 94.871094-.015625.058593-.027344.113281-.042969.167968-4.460938 14.796875-13.714844 27.5625-26.621094 36.472656zm44.449219-61.785156c-.027344-.460937-.082031-.917968-.117187-1.378906-1.160157-14.554688-6.242188-28.6875-14.539063-40.691406-17.027344-24.648438-41.171875-44.976563-69.828125-58.785156-15.445312-7.441407-31.742188-12.589844-48.5-16.074219-.167969-.03125-.332031-.070313-.496094-.105469-1.589844-11.816406 3.238282-23.328125 9.511719-33.082031 7.523437-11.691407 17.097656-21.882813 24.878906-33.386719 8.617188-12.726562 15.175781-27.089844 15.574219-42.691406.84375-33.21875-21.78125-60.527344-44.519531-82.105469-.742188-.703125-1.484375-1.40625-2.234375-2.105469.230468.046875 1.363281.292969 1.703125.371094 4.066406.921875 8.121093 1.949219 12.117187 3.136719 16.152344 4.726562 31.679688 11.457031 46.210938 19.980469 58.757812 34.453124 97.554687 97.714843 101.425781 165.722656 2.398437 42.140625-8.578125 85.1875-31.1875 121.195312zm0 0"/></svg>